<svg fill="none" xmlns="http://www.w3.org/2000/svg">
   <symbol id="search" viewBox="0 0 18 18">
        <path d="M13.2 11.6a7.3 7.3 0 1 0-1.6 1.6l4.8 4.8 1.6-1.6-4.8-4.8Zm-5.9.8a5 5 0 1 1 0-10.2 5 5 0 0 1 0 10.2Z"/>
   </symbol>
    <symbol id="logo" viewBox="0 0 70 20">
        <path fill-rule="evenodd" clip-rule="evenodd" d="M17.4 16c-.2.8-.5 1.2-1.4 1.4-2 .3-4 .4-6 .4s-4 0-6-.4c-.9-.2-1.1-.6-1.3-1.3-.4-2-.5-4-.5-6.1 0-2 0-4 .5-6 .2-.8.4-1.2 1.3-1.4 2-.3 4-.4 6-.4s4 0 6 .4c1 .2 1.2.6 1.4 1.3.4 2 .5 4 .5 6.1 0 2-.1 4-.5 6Zm2.7-6c0-2.2-.2-4.3-.6-6.4a3.7 3.7 0 0 0-3-3 36.6 36.6 0 0 0-13 0 3.7 3.7 0 0 0-3 3 36.3 36.3 0 0 0 0 12.9 3.7 3.7 0 0 0 3 3 36.6 36.6 0 0 0 13 0 3.7 3.7 0 0 0 3-3c.4-2.2.6-4.3.6-6.5Z"/>
        <path fill-rule="evenodd" clip-rule="evenodd" d="M15.1 13.3 11.8 10l1.5-1.5.3-.3L14.8 7c.3-.3.6-.6.6-1 0-.7-.6-1.3-1.2-1.3-.4 0-.7.2-1 .5l-1.6 1.5-1.5 1.6-1.5-1.6L7 5.2c-.3-.3-.6-.5-1-.5-.7 0-1.2.6-1.2 1.3 0 .4.2.7.5 1l1.3 1.2.3.3L8.3 10 5 13.3l-.2.8c0 .7.5 1.2 1.2 1.2.4 0 .8-.2 1-.5l1.2-1.2.4-.4 1.5-1.5 1.4 1.5.4.4 1.2 1.2c.3.3.6.5 1 .5.7 0 1.3-.5 1.3-1.2 0-.3 0-.5-.3-.8ZM69 14.6v-.3l-.2-.1h-5.2v-3.5H68l.1-.2v-.2a3.5 3.5 0 0 0 0-1.2l-.1-.2H63.5v-3h5.3v-.2l.1-.2a3.5 3.5 0 0 0 0-1.2l-.1-.2h-7l-.5.1-.2.6v10.5c0 .2 0 .4.2.5.1.2.3.2.5.2h7l.1-.2v-.3a3.6 3.6 0 0 0 0-.9ZM57 5l-.4-.3-.8-.3a7.8 7.8 0 0 0-2.4-.4 7 7 0 0 0-2.5.4 5.3 5.3 0 0 0-3.2 3.2c-.3.7-.4 1.6-.4 2.5 0 1 .1 1.8.4 2.5a5 5 0 0 0 3 3 7.3 7.3 0 0 0 3.5.4 9.9 9.9 0 0 0 2.6-.6c.2 0 .3-.2.3-.3l.1-.5V9.5l-.1-.2a.6.6 0 0 0-.5-.2h-4l-.2.2v.2a3.3 3.3 0 0 0 0 1.1c0 .2.2.3.3.3H55v2.8l-.7.3h-.8c-.6 0-1 0-1.5-.2a3 3 0 0 1-1.2-.8c-.3-.3-.5-.7-.7-1.2-.2-.5-.3-1.1-.3-1.8 0-.6.1-1.2.3-1.7a3.3 3.3 0 0 1 2-2.1c.4-.2.9-.3 1.4-.3a5.4 5.4 0 0 1 2.5.6c.3 0 .5.2.7.3l.3.2h.2v-.2l.1-.3a3.9 3.9 0 0 0 0-1.2c0-.1 0-.2-.2-.3Zm-19.3 6.4 1.7-5 1.7 5h-3.4Zm3.5-6.8-.1-.3-.3-.2h-.5a21.2 21.2 0 0 0-2 0c-.2 0-.3.1-.3.2l-.1.2-3.7 10.6-.2.5.1.3.3.1a6.1 6.1 0 0 0 1.7 0l.2-.2.1-.2.8-2.3h4.5l.8 2.4v.2h.2l.4.1a14.7 14.7 0 0 0 1.5 0l.3-.1.1-.3-.1-.5-3.7-10.5ZM30 8.7l-.4.7-.6.4-1 .2h-1.7V6H28.8l.6.2.6.6.2 1-.1 1ZM32 5.3l-1-.7-1-.4a8.7 8.7 0 0 0-1.8-.1h-3.4c-.2 0-.4 0-.6.2l-.2.6v11h.2l.4.2a5.2 5.2 0 0 0 1.6-.1l.2-.1v-4H28c.8 0 1.5-.1 2-.3a4 4 0 0 0 1.5-.8l1-1.3a4.7 4.7 0 0 0 0-3.1 3 3 0 0 0-.5-1Z"/>
    </symbol>
    <symbol id="arrow-link" viewBox="0 0 28 28">
        <path d="M18.2053 8.24152L19.1507 21.2002L21.695 18.6559L20.7232 5.82819L9.51789 5.37713L6.99982 7.8952L18.2053 8.24152Z"/>
        <path d="M17.7877 7.13486L5.01379 19.9088L7.02622 21.9212L19.8002 9.14728L17.7877 7.13486Z"/>
    </symbol>
    <symbol id="arrow-right" viewBox="0 0 14 12">
        <path d="M11.6825 5.44559L6.03684 12H8.42825L14 5.49487L8.94598 0L6.57922 0L11.6825 5.44559Z"/>
        <path d="M12.0063 4.72705L-4.57764e-05 4.72705L-4.56934e-05 6.62438L12.0063 6.62438L12.0063 4.72705Z"/>
    </symbol>
    <symbol id="arrow-left" viewBox="0 0 14 12">
        <path d="M2.31745 5.44559L7.96316 12H5.57175L0 5.49487L5.05402 0L7.42078 0L2.31745 5.44559Z" />
        <path d="M1.99368 4.72705L14.0001 4.72705L14.0001 6.62438L1.99368 6.62438L1.99368 4.72705Z"/>
    </symbol>
    <symbol viewBox="0 0 16 17" id="clip">
        <path d="M14.4101 13.1473L14.4101 13.1473C15.1184 14.1708 14.7891 15.3999 13.6639 15.9323L14.4101 13.1473ZM14.4101 13.1473L7.40104 3.018L7.40089 3.0178M14.4101 13.1473L7.40089 3.0178M7.40089 3.0178C7.2224 2.75958 7.00625 2.52428 6.75879 2.31739C6.95117 2.4914 7.12333 2.68617 7.27096 2.89946L7.27099 2.89951M7.40089 3.0178L7.27099 2.89951M7.27099 2.89951L14.28 13.0288L14.2801 13.0289M7.27099 2.89951L14.2801 13.0289M14.2801 13.0289C15.0085 14.0825 14.6497 15.4217 13.4921 15.9698L13.4916 15.97M14.2801 13.0289L13.4916 15.97M13.4916 15.97C13.2964 16.0622 13.0902 16.1237 12.8802 16.158M13.4916 15.97L12.8802 16.158M12.8802 16.158C13.1569 16.1231 13.4214 16.047 13.6639 15.9324L12.8802 16.158ZM2.55038 1.71812L2.55012 1.71825C1.77095 2.08675 1.25561 2.69349 1.06231 3.41488C0.868916 4.13664 1.01157 4.91955 1.50187 5.62763L1.50194 5.62773L7.0198 13.6007C7.02725 13.6115 7.04934 13.632 7.08958 13.6427C7.09261 13.6436 7.09558 13.6443 7.09848 13.6449L1.63223 5.74627C1.63222 5.74626 1.63221 5.74625 1.63221 5.74624C1.15233 5.05291 0.983696 4.23467 1.19391 3.45014C1.40416 2.6655 1.96018 2.04114 2.72204 1.68065L2.72212 1.68061C2.95667 1.56968 3.2032 1.48708 3.45686 1.43257C3.13904 1.48801 2.83413 1.58372 2.55038 1.71812ZM10.2691 15.1065L10.2689 15.1062L5.56249 8.30447C5.35977 8.01152 5.27811 7.64175 5.37309 7.28729C5.46894 6.92957 5.72137 6.65481 6.04623 6.50117C6.13022 6.46144 6.21734 6.4306 6.30625 6.40833C6.15635 6.43141 6.0105 6.47448 5.87394 6.53896C5.53155 6.70096 5.32011 6.95873 5.24151 7.25207C5.16446 7.53965 5.22131 7.88102 5.4323 8.18592L5.43231 8.18593L10.1387 14.9878C10.2914 15.2084 10.4825 15.4065 10.7048 15.5752C10.54 15.4404 10.3921 15.284 10.2691 15.1065ZM8.05801 7.12396C7.97214 6.99988 7.86744 6.88966 7.74917 6.79474C7.81508 6.85861 7.87517 6.92907 7.92811 7.0058C7.92816 7.00586 7.9282 7.00592 7.92824 7.00598L11.1421 11.6508L11.1422 11.651C11.1495 11.6616 11.1715 11.682 11.2117 11.6928C11.2148 11.6936 11.2177 11.6943 11.2207 11.695L8.05801 7.12396Z" fill="white" stroke="white"/>
    </symbol>
    <symbol id="angle" viewBox="0 0 122.9 66.9" >
      <path d="M11.7 2A6.9 6.9 0 0 0 2 11.8L56.9 65l4.8-4.9-4.8 5a6.9 6.9 0 0 0 9.7-.2l.2-.2 54-52.8a6.9 6.9 0 1 0-9.6-9.9L61.6 50.4 11.6 2z"/>
    </symbol>
    <symbol id="calendary" viewBox="0 0 20 20">
        <path d="M0 19.633H20V6.22942H0V19.633ZM14.8281 8.18374H16.8972V10.2528H14.8281V8.18374ZM14.8281 11.7013H16.8972V13.7704H14.8281V11.7013ZM14.8281 15.2189H16.8972V17.2879H14.8281V15.2189ZM10.9197 8.18374H12.9887V10.2528H10.9197V8.18374ZM10.9197 11.7013H12.9887V13.7704H10.9197V11.7013ZM10.9197 15.2189H12.9887V17.2879H10.9197V15.2189ZM7.01121 8.18374H9.08029V10.2528H7.01121V8.18374ZM7.01121 11.7013H9.08029V13.7704H7.01121V11.7013ZM7.01121 15.2189H9.08029V17.2879H7.01121V15.2189ZM3.10283 8.18374H5.17186V10.2528H3.10283V8.18374ZM3.10283 11.7013H5.17186V13.7704H3.10283V11.7013ZM5.17186 15.2189V17.2879H3.10283V15.2189H5.17186Z"/>
        <path d="M20 1.53949H16.4824V3.88452H15.3099V1.53949H4.69006V3.88452H3.5176V1.53949H0V5.05705H20V1.53949Z"/>
        <path d="M4.69004 0.366898H3.51758V1.53935H4.69004V0.366898Z" />
        <path d="M16.4824 0.366898H15.3099V1.53935H16.4824V0.366898Z"/>
    </symbol>

</svg>
