<svg fill="none" xmlns="http://www.w3.org/2000/svg">
    <symbol id="youtube" viewBox="0 0 15 12">
        <path d="M14.9 2.8s-.2-1.1-.6-1.6C13.7.6 13 .6 12.7.5L7.5.4 2.2.5c-.2 0-.9 0-1.5.7-.4.5-.5 1.6-.5 1.6L0 5.4v1.2l.1 2.6s.2 1.1.6 1.6c.6.6 1.4.6 1.7.7l5.1.1 5.3-.1c.2 0 .9 0 1.5-.7.4-.5.6-1.6.6-1.6l.1-2.6V5.4l-.1-2.6Zm-9 5.3V3.6L10 5.8 6 8.1Z" fill="#373334"/>
    </symbol>
    <symbol id="odnoclassniki" viewBox="0 0 16 16">
        <g clip-path="url(#a)">
            <circle cx="8" cy="8" r="8" fill="#373334"/>
            <path d="M9.8 12.7h-.5c-.9.5-1.9.6-2.9.4A.8.8 0 0 1 6 13a.9.9 0 0 1-.1-.8.8.8 0 0 1 .8-.6h.8c.5 0 1-.1 1.6-.4.7-.3 1.4-.8 1.9-1.5l.4-.7.5-.6a.8.8 0 0 1 .9.1.8.8 0 0 1 .3 1c-.2.5-.4 1-.8 1.4l-1 1-.3.2h.1l3.4 1a.8.8 0 0 1 .6.6.9.9 0 0 1-.4 1 .7.7 0 0 1-.6 0l-2.4-.6-.2-.1h-.2l-.3 1.4-.4 1.4a.8.8 0 0 1-1 .5 1 1 0 0 1-.5-.3.7.7 0 0 1-.1-.7l.5-1.8.3-1.6v-.1Z" fill="#F2F2F2"/>
            <path d="M5.5 4a3.4 3.4 0 0 1 4 5.6 3.4 3.4 0 0 1-5.2-1A3.4 3.4 0 0 1 5.5 4Zm.3 3.8a1.7 1.7 0 0 0 3-1.3 1.7 1.7 0 0 0-3.2 0 1.7 1.7 0 0 0 .2 1.3Z" fill="#F2F2F2"/>
        </g>
        <defs>
            <clipPath id="a">
                <path fill="#fff" d="M0 0h16v16H0z"/>
            </clipPath>
        </defs>
    </symbol>
    <symbol id="facebook" viewBox="0 0 16 16">
        <path d="M16 8a8 8 0 1 0-9.3 7.9v-5.6h-2V8h2V6.2c0-2 1.2-3 3-3h1.9v2h-1c-1 0-1.3.7-1.3 1.3V8h2.2l-.4 2.3H9.3V16A8 8 0 0 0 16 8Z" fill="#373334"/>
    </symbol>
    <symbol id="vk" viewBox="0 0 19 11">
        <path d="M10.7 2.8v2l.3.3a.2.2 0 0 0 .2 0l.3-.1.6-.7A13 13 0 0 0 14 1l.2-.3H18a.3.3 0 0 1 .2.4v.5l-.7 1.2-1.6 2.1-.5.8-.1.4c0 .2 0 .4.2.5l.6.6 1.5 1.5.6.9v.3a.5.5 0 0 1-.2.5l-.6.2H15a2 2 0 0 1-1.3-.4l-.8-.8-.8-.9-.4-.3a.5.5 0 0 0-.6.1l-.3.6-.1.9v.2a.5.5 0 0 1-.4.5 1 1 0 0 1-.4 0h-1c-.7 0-1.3 0-1.8-.3-1-.4-2-1-2.7-1.8-.8-.8-1.4-1.7-2-2.6A36.7 36.7 0 0 1 0 .8h.1L.6.7h2.6a.8.8 0 0 1 .7.5 12.3 12.3 0 0 0 2 3.5c0 .2.2.4.5.5a.4.4 0 0 0 .4 0l.2-.1.2-.7a10 10 0 0 0 0-2.7L7 1.5a.5.5 0 0 0-.2-.4L6.2 1s-.1 0 0 0V.7l.7-.4h1.3a22.3 22.3 0 0 1 2 0 .7.7 0 0 1 .5.7v1.8Z" fill="#373334"/>
    </symbol>
    <symbol id="instagram" viewBox="0 0 15 15">
        <path d="M15 7.5v3.2a4.2 4.2 0 0 1-2.7 4l-2.1.3H4.5a4.5 4.5 0 0 1-4.4-3.3l-.1-1V4.4c0-1 .3-2 1-2.8C1.9.7 2.9.2 4 0h6.2c1 0 2 .2 2.8.7a4.2 4.2 0 0 1 2 3.5v3.3Zm-13.9 0v3.3c0 1.2.7 2.1 1.8 2.7.5.3 1 .4 1.7.4h5.8c.6 0 1.3-.2 1.9-.5 1-.6 1.6-1.5 1.6-2.7V4.2c0-1.3-.8-2.2-1.9-2.8-.5-.2-1-.3-1.6-.3H4.7c-.7 0-1.3.1-1.8.4C1.8 2.1 1 3 1 4.2v3.3Z" fill="#373334"/>
        <path d="M1.1 7.5v3.3c0 1.2.7 2.1 1.8 2.7.5.3 1 .4 1.7.4h5.8c.6 0 1.3-.2 1.9-.5 1-.6 1.6-1.5 1.6-2.7V4.2c0-1.3-.8-2.2-1.9-2.8-.5-.2-1-.3-1.6-.3H4.7c-.7 0-1.3.1-1.8.4C1.8 2.1 1 3 1 4.2v3.3Z" fill="#373334"/>
        <path d="M7.5 10.7a3.5 3.5 0 1 1 .1-7 3.5 3.5 0 0 1 0 7ZM5.1 7.2a2.4 2.4 0 1 0 4.8.1 2.4 2.4 0 0 0-4.8 0ZM12.2 3.5a.7.7 0 1 1-.8-.8.8.8 0 0 1 .8.8Z" fill="#fff"/>
    </symbol>
</svg>
